<svg id="Layer_1" data-name="Layer 1" xmlns="http://www.w3.org/2000/svg" viewBox="0 0 30 30"><defs><style>.cls-1,.cls-2,.cls-3,.cls-4{fill:#fff;}.cls-1{opacity:0.7;}.cls-3{opacity:0.6;}.cls-4{opacity:0.4;}</style></defs><title>YJ-Web-Icons</title><path class="cls-1" d="M17.4,0H12.6a1.2,1.2,0,0,0-1.2,1.2V12.92L1.25,18.78a1.2,1.2,0,0,0-.44,1.64l2.4,4.16A1.2,1.2,0,0,0,4.85,25L18.6,17.08V1.2A1.2,1.2,0,0,0,17.4,0Z"/><path class="cls-2" d="M26.79,5.42A1.2,1.2,0,0,0,25.15,5L18.6,8.76l-3,1.73a1.2,1.2,0,0,1-1.2,0l-3-1.73L4.85,5a1.2,1.2,0,0,0-1.64.44L.81,9.58a1.2,1.2,0,0,0,.44,1.64L7.8,15l3.6,2.08V28.8A1.2,1.2,0,0,0,12.6,30h4.8a1.2,1.2,0,0,0,1.2-1.2V17.08L22.2,15l6.55-3.78a1.2,1.2,0,0,0,.44-1.64Z"/><path class="cls-3" d="M20.4,22.27,25.15,25a1.2,1.2,0,0,0,1.64-.44l2.4-4.16a1.2,1.2,0,0,0-.44-1.64L24,16l-3.6,2.08Z"/><polygon class="cls-4" points="20.4 18.12 24 16.04 22.2 15 18.6 17.08 18.6 21.24 20.4 22.27 20.4 18.12"/></svg>